<svg width="41" height="40" viewBox="0 0 41 40" fill="none" xmlns="http://www.w3.org/2000/svg">
<g id="Frame 782">
<path id="Vector" d="M12.8543 17.9786L11.8764 17.7693V17.7693L12.8543 17.9786ZM18.8126 12.0203L18.6033 11.0425L18.6033 11.0425L18.8126 12.0203ZM28.8733 20.5908L27.8733 20.5923L28.8733 20.5908ZM30.2089 24.4252L29.5018 25.1323L30.2089 24.4252ZM34.6225 30.253C35.013 30.6435 35.6462 30.6435 36.0367 30.253C36.4272 29.8624 36.4272 29.2293 36.0367 28.8387L34.6225 30.253ZM29.6728 35.2027C30.0633 35.5933 30.6964 35.5933 31.087 35.2027C31.4775 34.8122 31.4775 34.179 31.087 33.7885L29.6728 35.2027ZM25.2592 29.375L24.5521 30.0821L25.2592 29.375ZM21.4248 28.0393L21.4232 29.0393L21.4248 28.0393ZM18.4706 12.3087L19.393 12.6949L19.393 12.6949L18.4706 12.3087ZM18.359 12.5753L17.4366 12.1891C17.2798 12.5635 17.3649 12.9954 17.6519 13.2824L18.359 12.5753ZM13.4092 17.525L14.1164 16.8179C13.8294 16.5309 13.3975 16.4459 13.0231 16.6026L13.4092 17.525ZM13.1427 17.6366L13.5288 18.559L13.5288 18.559L13.1427 17.6366ZM7.88046 11.5052L8.64504 10.8607L8.64385 10.8593L7.88046 11.5052ZM12.3392 7.04648L11.6933 7.80987L11.6947 7.81104L12.3392 7.04648ZM13.8042 8.2815L14.4488 7.51694L14.4488 7.51693L13.8042 8.2815ZM9.11547 12.9702L9.88004 12.3257L9.11547 12.9702ZM5.66789 16.8471L5.75094 17.8436L5.75271 17.8435L5.66789 16.8471ZM7.57782 16.6845L7.66263 17.6809H7.66264L7.57782 16.6845ZM3.83398 21.1596H4.83398H3.83398ZM5.66789 23.1527L5.58485 24.1493H5.58485L5.66789 23.1527ZM7.57511 23.3116L7.65816 22.3151H7.65816L7.57511 23.3116ZM7.88047 28.4946L8.64385 29.1405H8.64385L7.88047 28.4946ZM9.11617 27.0342L8.35278 26.3883H8.35278L9.11617 27.0342ZM7.99302 31.2007L8.70013 30.4936L8.70013 30.4936L7.99302 31.2007ZM9.63314 32.8408L8.92603 33.5479L8.92603 33.5479L9.63314 32.8408ZM12.3392 32.9533L11.6947 32.1888L11.6933 32.19L12.3392 32.9533ZM13.8042 31.7183L14.4488 32.4829L14.4488 32.4829L13.8042 31.7183ZM17.6811 35.166L16.6846 35.249L17.6811 35.166ZM17.5222 33.2587L16.5256 33.3417V33.3417L17.5222 33.2587ZM19.6742 36.9999V35.9999H19.6742L19.6742 36.9999ZM21.9937 36.9999V37.9999V36.9999ZM24.9833 35.249C25.0292 34.6987 24.6202 34.2153 24.0698 34.1695C23.5194 34.1236 23.0361 34.5326 22.9902 35.083L24.9833 35.249ZM35.9169 22.1562C35.3666 22.2021 34.9576 22.6855 35.0034 23.2358C35.0493 23.7862 35.5326 24.1952 36.083 24.1493L35.9169 22.1562ZM36 16.8471L35.9169 17.8437L36 16.8471ZM34.0927 16.6882L34.1757 15.6917H34.1757L34.0927 16.6882ZM33.7873 11.5052L34.5507 12.1512L33.7873 11.5052ZM32.5516 12.9656L31.7882 12.3197L31.7882 12.3197L32.5516 12.9656ZM33.6748 8.79915L34.3819 8.09204L34.3819 8.09204L33.6748 8.79915ZM32.0347 7.15904L31.3275 7.86615L31.3275 7.86615L32.0347 7.15904ZM29.3286 7.04648L29.9731 7.81105L29.9745 7.80987L29.3286 7.04648ZM27.8635 8.28151L28.5081 9.04608L28.5081 9.04608L27.8635 8.28151ZM23.9867 4.83391L22.9901 4.91695V4.91695L23.9867 4.83391ZM24.1456 6.74113L25.1422 6.65809V6.65809L24.1456 6.74113ZM21.9936 3V2V3ZM19.6741 3L19.6741 4H19.6741V3ZM17.681 4.83391L16.6845 4.75086V4.75086L17.681 4.83391ZM17.5221 6.74115L16.5256 6.6581V6.6581L17.5221 6.74115ZM8.47722 15.952L9.42777 16.2625V16.2625L8.47722 15.952ZM9.23369 14.1239L10.1257 14.576L9.23369 14.1239ZM14.9579 8.39983L15.4098 9.29194L14.9579 8.39983ZM16.7895 7.64236L16.479 6.69179V6.6918L16.7895 7.64236ZM24.8782 7.64234L24.5677 8.59291L24.5677 8.59291L24.8782 7.64234ZM26.7098 8.39983L26.258 9.29194L26.258 9.29194L26.7098 8.39983ZM32.4321 14.1208L31.54 14.5726V14.5726L32.4321 14.1208ZM33.1914 15.9556L34.1418 15.6448H34.1418L33.1914 15.9556ZM16.7896 32.3575L16.479 33.308H16.479L16.7896 32.3575ZM14.9579 31.6L15.4098 30.7079L14.9579 31.6ZM9.23571 25.879L8.34361 26.3309L9.23571 25.879ZM8.47644 24.0442L7.52596 24.355H7.52596L8.47644 24.0442ZM11.8764 17.7693C11.239 20.7472 12.1265 24.0204 14.4857 26.3796L15.8999 24.9654C14.0226 23.0881 13.336 20.5058 13.8321 18.188L11.8764 17.7693ZM21.541 18.5857L19.4197 20.707L20.8339 22.1212L22.9552 19.9999L21.541 18.5857ZM27.2136 13.6517C24.8544 11.2925 21.5812 10.405 18.6033 11.0425L19.0219 12.9981C21.3397 12.502 23.9221 13.1886 25.7994 15.0659L27.2136 13.6517ZM29.8733 20.5892C29.8696 18.1668 29.0649 15.503 27.2136 13.6517L25.7994 15.0659C27.1861 16.4526 27.8702 18.5562 27.8733 20.5923L29.8733 20.5892ZM29.5018 25.1323L34.6225 30.253L36.0367 28.8387L30.9161 23.7181L29.5018 25.1323ZM31.087 33.7885L25.9663 28.6679L24.5521 30.0821L29.6728 35.2027L31.087 33.7885ZM14.4857 26.3796C16.337 28.2309 19.0008 29.0356 21.4232 29.0393L21.4263 27.0393C19.3902 27.0362 17.2866 26.3521 15.8999 24.9654L14.4857 26.3796ZM17.5481 11.9226L17.4366 12.1891L19.2814 12.9614L19.393 12.6949L17.5481 11.9226ZM17.6519 13.2824L21.541 17.1715L22.9552 15.7572L19.0661 11.8682L17.6519 13.2824ZM18.0054 20.707L14.1164 16.8179L12.7021 18.2321L16.5912 22.1212L18.0054 20.707ZM13.0231 16.6026L12.7566 16.7141L13.5288 18.559L13.7954 18.4474L13.0231 16.6026ZM25.9663 28.6679C24.7099 27.4115 22.9566 27.0416 21.4263 27.0393L21.4232 29.0393C22.6961 29.0412 23.8263 29.3563 24.5521 30.0821L25.9663 28.6679ZM27.8733 20.5923C27.8756 22.1226 28.2455 23.876 29.5018 25.1323L30.9161 23.7181C30.1903 22.9923 29.8752 21.8622 29.8733 20.5892L27.8733 20.5923ZM18.6033 11.0425C18.1116 11.1477 17.7289 11.4907 17.5481 11.9226L19.393 12.6949C19.3344 12.8349 19.2043 12.9591 19.0219 12.9981L18.6033 11.0425ZM22.9552 19.9999C24.1268 18.8283 24.1268 16.9288 22.9552 15.7572L21.541 17.1715C21.9315 17.562 21.9315 18.1951 21.541 18.5857L22.9552 19.9999ZM19.4197 20.707C19.0291 21.0975 18.396 21.0975 18.0054 20.707L16.5912 22.1212C17.7628 23.2928 19.6623 23.2928 20.8339 22.1212L19.4197 20.707ZM13.8321 18.188C13.7931 18.3703 13.6689 18.5004 13.5288 18.559L12.7566 16.7141C12.3247 16.8949 11.9817 17.2776 11.8764 17.7693L13.8321 18.188ZM7.28592 8.09204C6.18264 9.19532 6.10924 10.9601 7.11708 12.1512L8.64385 10.8593C8.3079 10.4623 8.33237 9.87402 8.70013 9.50626L7.28592 8.09204ZM8.92603 6.45193L7.28592 8.09204L8.70013 9.50626L10.3402 7.86615L8.92603 6.45193ZM12.9852 6.28309C11.7941 5.27525 10.0293 5.34866 8.92603 6.45193L10.3402 7.86615C10.708 7.49839 11.2963 7.47392 11.6933 7.80987L12.9852 6.28309ZM14.4488 7.51693L12.9838 6.28192L11.6947 7.81104L13.1597 9.04606L14.4488 7.51693ZM7.1159 12.1498L8.3509 13.6148L9.88004 12.3257L8.64503 10.8607L7.1159 12.1498ZM5.75271 17.8435L7.66263 17.6809L7.493 15.6881L5.58308 15.8507L5.75271 17.8435ZM4.83398 18.8401C4.83398 18.3201 5.23265 17.8868 5.75094 17.8436L5.58485 15.8505C4.02997 15.9801 2.83398 17.2799 2.83398 18.8401H4.83398ZM4.83398 21.1596V18.8401H2.83398V21.1596H4.83398ZM5.75094 22.1562C5.23265 22.113 4.83398 21.6797 4.83398 21.1596H2.83398C2.83398 22.7199 4.02997 24.0197 5.58485 24.1493L5.75094 22.1562ZM7.65816 22.3151L5.75094 22.1562L5.58485 24.1493L7.49207 24.3082L7.65816 22.3151ZM8.64385 29.1405L9.87955 27.6801L8.35278 26.3883L7.11708 27.8486L8.64385 29.1405ZM8.70013 30.4936C8.33237 30.1258 8.3079 29.5375 8.64385 29.1405L7.11708 27.8486C6.10924 29.0397 6.18264 30.8045 7.28592 31.9078L8.70013 30.4936ZM10.3402 32.1337L8.70013 30.4936L7.28592 31.9078L8.92603 33.5479L10.3402 32.1337ZM11.6933 32.19C11.2963 32.5259 10.708 32.5014 10.3402 32.1337L8.92603 33.5479C10.0293 34.6512 11.7941 34.7246 12.9852 33.7167L11.6933 32.19ZM13.1597 30.9538L11.6947 32.1888L12.9838 33.7179L14.4488 32.4829L13.1597 30.9538ZM18.6777 35.083L18.5187 33.1756L16.5256 33.3417L16.6846 35.249L18.6777 35.083ZM19.6742 35.9999C19.1541 35.9999 18.7209 35.6012 18.6777 35.083L16.6846 35.249C16.8142 36.8039 18.1139 37.9999 19.6742 37.9999L19.6742 35.9999ZM21.9937 35.9999H19.6742V37.9999H21.9937V35.9999ZM22.9902 35.083C22.947 35.6012 22.5138 35.9999 21.9937 35.9999V37.9999C23.554 37.9999 24.8538 36.8039 24.9833 35.249L22.9902 35.083ZM36.8339 21.1597C36.8339 21.6798 36.4352 22.1131 35.9169 22.1562L36.083 24.1493C37.6379 24.0198 38.8339 22.72 38.8339 21.1597H36.8339ZM36.8339 18.8402V21.1597H38.8339V18.8402H36.8339ZM35.9169 17.8437C36.4352 17.8869 36.8339 18.3201 36.8339 18.8402H38.8339C38.8339 17.28 37.6379 15.9802 36.083 15.8506L35.9169 17.8437ZM34.0096 17.6847L35.9169 17.8437L36.083 15.8506L34.1757 15.6917L34.0096 17.6847ZM33.0239 10.8593L31.7882 12.3197L33.315 13.6116L34.5507 12.1512L33.0239 10.8593ZM32.9677 9.50626C33.3354 9.87402 33.3599 10.4623 33.0239 10.8593L34.5507 12.1512C35.5586 10.9601 35.4851 9.19532 34.3819 8.09204L32.9677 9.50626ZM31.3275 7.86615L32.9677 9.50626L34.3819 8.09204L32.7418 6.45193L31.3275 7.86615ZM29.9745 7.80987C30.3715 7.47392 30.9598 7.49839 31.3275 7.86615L32.7418 6.45193C31.6385 5.34866 29.8737 5.27525 28.6826 6.28309L29.9745 7.80987ZM28.5081 9.04608L29.9731 7.81105L28.684 6.28191L27.219 7.51694L28.5081 9.04608ZM22.9901 4.91695L23.1491 6.82418L25.1422 6.65809L24.9832 4.75086L22.9901 4.91695ZM21.9936 4C22.5137 4 22.947 4.39866 22.9901 4.91695L24.9832 4.75086C24.8537 3.19599 23.5539 2 21.9936 2V4ZM19.6741 4H21.9936V2H19.6741V4ZM18.6776 4.91696C18.7208 4.39866 19.154 4 19.6741 4L19.6741 2C18.1139 2 16.8141 3.19599 16.6845 4.75086L18.6776 4.91696ZM18.5187 6.82419L18.6776 4.91695L16.6845 4.75086L16.5256 6.6581L18.5187 6.82419ZM9.42777 16.2625C9.6158 15.687 9.84844 15.123 10.1257 14.576L8.3417 13.6719C8.01782 14.311 7.74615 14.9696 7.52666 15.6414L9.42777 16.2625ZM15.4098 9.29194C15.9576 9.01448 16.5235 8.78127 17.1 8.59292L16.479 6.6918C15.8065 6.91148 15.1461 7.1836 14.5061 7.50771L15.4098 9.29194ZM24.5677 8.59291C25.1443 8.78126 25.7101 9.01447 26.258 9.29194L27.1616 7.50772C26.5216 7.1836 25.8613 6.91147 25.1888 6.69178L24.5677 8.59291ZM31.54 14.5726C31.8179 15.1215 32.0521 15.6891 32.2409 16.2664L34.1418 15.6448C33.9217 14.9715 33.6486 14.3095 33.3242 13.669L31.54 14.5726ZM17.1001 31.4069C16.5235 31.2186 15.9576 30.9853 15.4098 30.7079L14.5061 32.4921C15.1461 32.8162 15.8065 33.0884 16.479 33.308L17.1001 31.4069ZM10.1278 25.4272C9.84984 24.8784 9.61569 24.3108 9.42692 23.7334L7.52596 24.355C7.74612 25.0283 8.01917 25.6903 8.34361 26.3309L10.1278 25.4272ZM16.5256 6.6581C16.5256 6.65815 16.5256 6.65795 16.5256 6.65766C16.5257 6.65739 16.5257 6.65737 16.5256 6.65768C16.5254 6.65828 16.5242 6.66093 16.5208 6.66499C16.5136 6.67378 16.4997 6.68503 16.479 6.69179L17.1 8.59292C17.8536 8.34674 18.4477 7.6759 18.5187 6.82419L16.5256 6.6581ZM18.5187 33.1757C18.4478 32.3239 17.8537 31.6531 17.1001 31.4069L16.479 33.308C16.4997 33.3148 16.5137 33.3261 16.5209 33.3349C16.5242 33.3389 16.5254 33.3416 16.5257 33.3422C16.5258 33.3425 16.5258 33.3425 16.5257 33.3422C16.5257 33.3419 16.5256 33.3417 16.5256 33.3417L18.5187 33.1757ZM14.4488 32.4829C14.4488 32.4829 14.4486 32.483 14.4484 32.4831C14.4481 32.4833 14.4481 32.4833 14.4484 32.4832C14.449 32.4829 14.4518 32.4819 14.4571 32.4814C14.4685 32.4803 14.4865 32.4822 14.5061 32.4921L15.4098 30.7079C14.7043 30.3506 13.812 30.4038 13.1597 30.9538L14.4488 32.4829ZM23.1491 6.82417C23.2201 7.67588 23.8141 8.34672 24.5677 8.59291L25.1888 6.69178C25.1681 6.68502 25.1541 6.67377 25.1469 6.66497C25.1436 6.66091 25.1424 6.65827 25.1421 6.65767C25.142 6.65736 25.142 6.65737 25.1421 6.65764C25.1422 6.65794 25.1422 6.65814 25.1422 6.65809L23.1491 6.82417ZM9.87955 27.6801C10.4315 27.0278 10.4857 26.1339 10.1278 25.4272L8.34361 26.3309C8.35353 26.3505 8.35544 26.3685 8.35433 26.3799C8.35381 26.3852 8.35278 26.388 8.35252 26.3886C8.35239 26.3889 8.35238 26.3889 8.35252 26.3886C8.35268 26.3884 8.35281 26.3882 8.35278 26.3883L9.87955 27.6801ZM27.219 7.51694C27.219 7.51696 27.2191 7.51683 27.2194 7.51668C27.2196 7.51653 27.2197 7.51654 27.2193 7.51667C27.2187 7.51693 27.216 7.51795 27.2107 7.51847C27.1992 7.51957 27.1812 7.51765 27.1616 7.50772L26.258 9.29194C26.9634 9.64921 27.8558 9.59599 28.5081 9.04608L27.219 7.51694ZM7.49207 24.3082C7.49212 24.3082 7.49192 24.3082 7.49163 24.3081C7.49136 24.308 7.49135 24.308 7.49166 24.3081C7.49228 24.3084 7.49494 24.3096 7.49902 24.313C7.50787 24.3202 7.51917 24.3342 7.52596 24.355L9.42692 23.7334C9.1806 22.9801 8.50987 22.3861 7.65816 22.3151L7.49207 24.3082ZM31.7882 12.3197C31.2363 12.972 31.1821 13.866 31.54 14.5726L33.3242 13.669C33.3143 13.6494 33.3123 13.6314 33.3135 13.6199C33.314 13.6146 33.315 13.6119 33.3153 13.6112C33.3154 13.6109 33.3154 13.6109 33.3153 13.6112C33.3151 13.6114 33.315 13.6116 33.315 13.6116L31.7882 12.3197ZM7.66264 17.6809C8.51293 17.6085 9.18198 17.0149 9.42777 16.2625L7.52666 15.6414C7.51989 15.6622 7.50865 15.6761 7.49986 15.6833C7.49581 15.6867 7.49316 15.6879 7.49257 15.6881C7.49226 15.6883 7.49227 15.6882 7.49254 15.6882C7.49284 15.6881 7.49304 15.6881 7.493 15.6881L7.66264 17.6809ZM13.1597 9.04606C13.812 9.59599 14.7043 9.64921 15.4098 9.29194L14.5061 7.50771C14.4865 7.51765 14.4685 7.51957 14.4571 7.51846C14.4518 7.51795 14.449 7.51692 14.4484 7.51667C14.4481 7.51654 14.4481 7.51653 14.4484 7.51667C14.4486 7.51683 14.4488 7.51696 14.4488 7.51694L13.1597 9.04606ZM34.1757 15.6917C34.1757 15.6917 34.1759 15.6917 34.1762 15.6917C34.1764 15.6918 34.1764 15.6918 34.1761 15.6917C34.1755 15.6915 34.1729 15.6902 34.1688 15.6869C34.1599 15.6796 34.1486 15.6656 34.1418 15.6448L32.2409 16.2664C32.4872 17.0197 33.1579 17.6138 34.0096 17.6847L34.1757 15.6917ZM8.3509 13.6148C8.35093 13.6148 8.3508 13.6147 8.35064 13.6144C8.35049 13.6141 8.3505 13.6141 8.35063 13.6144C8.35088 13.615 8.3519 13.6178 8.35241 13.623C8.35351 13.6344 8.3516 13.6523 8.3417 13.6719L10.1257 14.576C10.4832 13.8705 10.4299 12.978 9.88004 12.3257L8.3509 13.6148Z" fill="#0D0D0F"/>
</g>
</svg>
