<svg width="116" height="18" viewBox="0 0 116 18" fill="none" xmlns="http://www.w3.org/2000/svg">
<path id="Vector" fill-rule="evenodd" clip-rule="evenodd" d="M46.5487 0.00405405H54.8716L48.8838 17.4851H40.5608L46.5487 0.00405405ZM38.4081 0.00405405H44.4568L38.4689 17.4851H32.4203L38.4081 0.00405405ZM30.8351 0.00405405H35.6838L29.6959 17.4851H24.8473L30.8351 0.00405405ZM24.5797 0.00405405H28.1108L22.123 17.4851H18.5919L24.5797 0.00405405ZM19.1027 0.00405405H21.5554L15.5676 17.4851H13.1149L19.1027 0.00405405ZM14.7 0.00405405H16.4351L10.4473 17.4851H8.71216L14.7 0.00405405ZM10.2081 0.00405405H11.2257L5.23784 17.4851H4.22027L10.2081 0.00405405ZM5.98784 0.00405405H6.64459L0.656757 17.4851H0L5.98784 0.00405405ZM74.7527 7.31351H77.0797C77.8865 7.31351 78.4581 7.22432 78.7419 6.9973C79.0743 6.77027 79.2649 6.36081 79.2649 5.81757C79.2649 5.27432 79.0743 4.86486 78.7419 4.63378C78.4095 4.45135 77.5541 4.31757 76.3176 4.31757H74.7487V7.31757L74.7527 7.31351ZM74.7527 13.6784H77.3676C78.2716 13.6784 78.8878 13.5892 79.2689 13.3135C79.65 13.0865 79.8405 12.6324 79.8405 12.0851C79.8405 11.5419 79.65 11.0838 79.2689 10.8568C78.8878 10.6297 78.223 10.4919 77.323 10.4919H74.7568V13.6743L74.7527 13.6784ZM59.8865 11.8135H63.5432L61.7392 5.81351L59.8865 11.8135ZM89.1527 11.3878L86.25 9.34054L89.9149 9.13784L91.1757 5.85L92.396 9.13784L96.0243 9.32027L93.1784 11.3878L94.2689 14.6757L91.1757 12.7946L88.1919 14.6757L89.1487 11.3878H89.1527ZM82.3054 17.6311L82.5689 16.9135C82.0297 17.1608 81.446 17.3635 80.7405 17.4487C80.027 17.5865 78.7946 17.6311 77.0838 17.6311H65.3027L64.6378 15.3568H58.8446L58.1311 17.6311H52.4797L58.7959 0.360811H64.6865L69.0568 12.1297V0.360811H76.5122C78.0811 0.360811 79.2689 0.45 79.9784 0.498649C80.7405 0.587838 81.3568 0.725676 81.8797 0.908108C82.7838 1.22838 83.4933 1.72703 84.0162 2.4527C84.4905 3.13378 84.7297 3.9973 84.7297 4.99865C84.7297 5.77297 84.5392 6.45405 84.2068 7.04595C83.8257 7.63784 83.2581 8.13649 82.496 8.50135C83.4446 8.81757 84.2068 9.32027 84.6324 9.95676C84.7459 10.1189 84.8433 10.2851 84.9284 10.4635L88.6216 0.364865H94.5122L97.2365 7.69865C97.4554 5.53378 98.2419 3.77838 99.596 2.40811C101.258 0.818919 103.492 0 106.293 0C108.904 0 110.947 0.591892 112.468 1.81622C113.939 2.99595 114.795 4.72703 114.985 6.9527H109.524C109.431 6.08919 109.143 5.40811 108.62 4.99865C108.097 4.54459 107.384 4.31757 106.435 4.31757C105.296 4.31757 104.441 4.72703 103.869 5.4973C103.346 6.27162 103.014 7.45135 103.014 9.04459C103.014 10.5446 103.346 11.7243 103.918 12.4986C104.534 13.3176 105.438 13.6784 106.626 13.6784C107.53 13.6784 108.239 13.4514 108.762 12.9973C109.285 12.4987 109.618 11.8176 109.711 10.9054H115.172C115.03 13.1797 114.174 14.9068 112.654 16.1311C111.134 17.4041 109.091 17.9959 106.48 17.9959C104.003 17.9959 101.976 17.4 100.403 16.2284L100.922 17.6311H95.1284L94.4635 15.3568H88.6703L87.9568 17.6311H82.3054Z" fill="#ABABBA"/>
</svg>
