<svg width="177" height="120" viewBox="0 0 177 120" fill="none" xmlns="http://www.w3.org/2000/svg">
<path fill-rule="evenodd" clip-rule="evenodd" d="M77.5487 51.0041H85.8716L79.8838 68.4851H71.5608L77.5487 51.0041ZM69.4081 51.0041H75.4568L69.4689 68.4851H63.4203L69.4081 51.0041ZM61.8351 51.0041H66.6838L60.6959 68.4851H55.8473L61.8351 51.0041ZM55.5797 51.0041H59.1108L53.123 68.4851H49.5919L55.5797 51.0041ZM50.1027 51.0041H52.5554L46.5676 68.4851H44.1149L50.1027 51.0041ZM45.7 51.0041H47.4351L41.4473 68.4851H39.7122L45.7 51.0041ZM41.2081 51.0041H42.2257L36.2378 68.4851H35.2203L41.2081 51.0041ZM36.9878 51.0041H37.6446L31.6568 68.4851H31L36.9878 51.0041ZM105.753 58.3135H108.08C108.886 58.3135 109.458 58.2243 109.742 57.9973C110.074 57.7703 110.265 57.3608 110.265 56.8176C110.265 56.2743 110.074 55.8649 109.742 55.6338C109.409 55.4514 108.554 55.3176 107.318 55.3176H105.749V58.3176L105.753 58.3135ZM105.753 64.6784H108.368C109.272 64.6784 109.888 64.5892 110.269 64.3135C110.65 64.0865 110.841 63.6324 110.841 63.0851C110.841 62.5419 110.65 62.0838 110.269 61.8568C109.888 61.6297 109.223 61.4919 108.323 61.4919H105.757V64.6743L105.753 64.6784ZM90.8865 62.8135H94.5433L92.7392 56.8135L90.8865 62.8135ZM120.153 62.3878L117.25 60.3405L120.915 60.1378L122.176 56.85L123.396 60.1378L127.024 60.3203L124.178 62.3878L125.269 65.6757L122.176 63.7946L119.192 65.6757L120.149 62.3878H120.153ZM113.305 68.6311L113.569 67.9135C113.03 68.1608 112.446 68.3635 111.741 68.4487C111.027 68.5865 109.795 68.6311 108.084 68.6311H96.3027L95.6378 66.3568H89.8446L89.1311 68.6311H83.4797L89.7959 51.3608H95.6865L100.057 63.1297V51.3608H107.512C109.081 51.3608 110.269 51.45 110.978 51.4986C111.741 51.5878 112.357 51.7257 112.88 51.9081C113.784 52.2284 114.493 52.727 115.016 53.4527C115.491 54.1338 115.73 54.9973 115.73 55.9986C115.73 56.773 115.539 57.4541 115.207 58.0459C114.826 58.6378 114.258 59.1365 113.496 59.5014C114.445 59.8176 115.207 60.3203 115.632 60.9568C115.746 61.1189 115.843 61.2851 115.928 61.4635L119.622 51.3649H125.512L128.236 58.6986C128.455 56.5338 129.242 54.7784 130.596 53.4081C132.258 51.8189 134.492 51 137.293 51C139.904 51 141.947 51.5919 143.468 52.8162C144.939 53.9959 145.795 55.727 145.985 57.9527H140.524C140.431 57.0892 140.143 56.4081 139.62 55.9986C139.097 55.5446 138.384 55.3176 137.435 55.3176C136.296 55.3176 135.441 55.727 134.869 56.4973C134.346 57.2716 134.014 58.4514 134.014 60.0446C134.014 61.5446 134.346 62.7243 134.918 63.4986C135.534 64.3176 136.438 64.6784 137.626 64.6784C138.53 64.6784 139.239 64.4514 139.762 63.9973C140.285 63.4986 140.618 62.8176 140.711 61.9054H146.172C146.03 64.1797 145.174 65.9068 143.654 67.1311C142.134 68.4041 140.091 68.9959 137.48 68.9959C135.003 68.9959 132.976 68.4 131.403 67.2284L131.922 68.6311H126.128L125.464 66.3568H119.67L118.957 68.6311H113.305Z" fill="#1967B2"/>
</svg>
