<?xml version="1.0" encoding="utf-8"?><svg viewBox="0 0 95 44" xmlns="http://www.w3.org/2000/svg" xmlns:xlink="http://www.w3.org/1999/xlink"><style>:root>svg{display:none}:root>svg:target{display:block}</style><svg fill="none" viewBox="0 0 9 14" id="arr" xmlns="http://www.w3.org/2000/svg"><path d="m1 13 6-6-6-6" stroke="#8F8FA3" stroke-width="2" stroke-linecap="round"/></svg><svg fill="none" viewBox="0 0 24 24" id="arrow-menu" xmlns="http://www.w3.org/2000/svg"><path d="m15 11-3 3-3-3" stroke="#2D2DD2" stroke-width="1.5" stroke-linecap="round"/></svg><svg fill="none" viewBox="0 0 21 20" id="b-arr" xmlns="http://www.w3.org/2000/svg"><path d="m8.5 6 4 4-4 4" stroke="#0D0D0F"/></svg><svg fill="none" viewBox="0 0 41 40" id="box" xmlns="http://www.w3.org/2000/svg"><g stroke="#0D0D0F" stroke-width="2"><path d="M27.667 24.166v-8.333L12.433 7.63m0 0-7.266 4.036v16.667l15 8.333 15-8.333V11.666l-15-8.333-7.734 4.297Z" stroke-linecap="round" stroke-linejoin="round"/><path d="M20.167 19.83v16.837M5.167 11.666l14.923 8.333M35.167 11.666 20.09 19.999"/></g></svg><svg fill="none" viewBox="0 0 44 44" id="burger" xmlns="http://www.w3.org/2000/svg"><path d="M32 18H12M22 26H12" stroke="#0D0D0F" stroke-width="2" stroke-linecap="round"/></svg><svg fill="none" viewBox="0 0 41 40" id="car" xmlns="http://www.w3.org/2000/svg"><g stroke="#0D0D0F" stroke-width="2"><path d="M13.833 13.333H5.5M12.167 20h-10M8.833 6.667H25.5L21.333 30M7.166 30H3.833M25.5 30H14.666m9.94-18.333h5.709c5.303 0 9.311 4.803 8.363 10.02L37.166 30h-3.333" stroke-linecap="round" stroke-linejoin="round"/><circle cx="11.333" cy="30" r="3.333"/><circle cx="29.666" cy="30" r="3.333"/></g></svg><svg fill="none" viewBox="0 0 24 24" id="cart_ico" xmlns="http://www.w3.org/2000/svg"><path d="m21 6 .928.371A1 1 0 0 0 21 5v1Zm-3 7.5.09.996a1 1 0 0 0 .838-.625L18 13.5ZM6 18l-.962-.275A1 1 0 0 0 6 19v-1Zm12 1a1 1 0 1 0 0-2v2ZM3.707 3.293a1 1 0 0 0-1.414 1.414l1.414-1.414ZM5 7h16V5H5v2Zm15.072-1.371-3 7.5 1.857.742 3-7.5-1.857-.742Zm-2.162 6.875-11 1 .18 1.992 11-1-.18-1.992ZM6.038 14.225l-1 3.5 1.924.55 1-3.5-1.924-.55ZM6 19h12v-2H6v2Zm1.973-4.729-2-8.5-1.946.458 2 8.5 1.946-.458ZM5.707 5.293l-2-2-1.414 1.414 2 2 1.414-1.414Z" fill="#0D0D0F"/><circle cx="16.75" cy="20.75" r="1.25" fill="#0D0D0F"/><circle cx="7.25" cy="20.75" r="1.25" fill="#0D0D0F"/></svg><svg fill="none" viewBox="0 0 24 24" id="close_icon" xmlns="http://www.w3.org/2000/svg"><path d="m4.5 4.5 15 15M19.5 4.5l-15 15" stroke="#0D0D0F" stroke-width="2" stroke-linecap="round" stroke-linejoin="round"/></svg><svg fill="none" viewBox="0 0 24 24" id="comparison_ico" xmlns="http://www.w3.org/2000/svg"><path stroke="#0D0D0F" stroke-width="2" stroke-linejoin="round" d="M14 21v-7h4v7zM6 21V8h4v13zM10 21V3h4v18z"/><path d="M3 21h18" stroke="#0D0D0F" stroke-width="2" stroke-linecap="round"/></svg><svg fill="none" viewBox="0 0 24 24" id="f-ico" xmlns="http://www.w3.org/2000/svg"><path d="M6 7h12M6 12h6M6 17h.5" stroke="#fff" stroke-width="2" stroke-linecap="round"/></svg><svg fill="none" viewBox="0 0 24 24" id="favorite_ico" xmlns="http://www.w3.org/2000/svg"><path d="M3 10c0 4 6.5 8.846 9 11 2.5-2.154 9-7 9-11 0-3-2-5-4.5-5-2 0-3.555 1.514-4.5 3.26C11.06 6.522 9.5 5 7.5 5 5 5 3 7 3 10Z" stroke="#0D0D0F" stroke-width="2" stroke-linejoin="round"/></svg><svg fill="none" viewBox="0 0 95 24" id="logo" xmlns="http://www.w3.org/2000/svg"><mask id="la" style="mask-type:alpha" maskUnits="userSpaceOnUse" x="0" y="4" width="94" height="16"><path d="M4.247 19H.47L5.376 4.455h4.68L14.966 19h-3.779L7.77 8.12h-.114L4.247 19Zm-.504-5.724h7.898v2.67H3.743v-2.67Zm16.303-8.821V19h-3.515V4.455h3.515ZM22.253 19V4.455h6.009c1.089 0 2.029.196 2.82.589A4.242 4.242 0 0 1 32.92 6.72c.43.725.646 1.584.646 2.578 0 1.009-.22 1.866-.66 2.571-.44.701-1.066 1.236-1.875 1.605-.81.365-1.769.547-2.877.547h-3.8v-2.77h3.147c.53 0 .973-.068 1.328-.205.36-.143.632-.356.817-.64.184-.289.277-.658.277-1.108 0-.45-.093-.821-.277-1.115a1.668 1.668 0 0 0-.817-.667c-.36-.152-.803-.228-1.328-.228h-1.733V19h-3.516Zm8.19-6.648L34.063 19H30.23l-3.551-6.648h3.764ZM35.494 19V4.455h6.009c1.089 0 2.029.213 2.82.639a4.477 4.477 0 0 1 1.839 1.768c.43.753.646 1.629.646 2.628 0 1.004-.22 1.882-.66 2.635-.436.748-1.058 1.328-1.868 1.74-.81.412-1.77.618-2.884.618H37.69v-2.77h3.054c.53 0 .973-.092 1.328-.277.36-.185.632-.443.817-.774.184-.336.277-.727.277-1.172 0-.45-.092-.838-.277-1.165a1.859 1.859 0 0 0-.817-.767c-.36-.18-.803-.27-1.328-.27h-1.733V19h-3.516Zm13.047 0V4.455h6.009c1.089 0 2.029.196 2.82.589A4.242 4.242 0 0 1 59.21 6.72c.43.725.646 1.584.646 2.578 0 1.009-.22 1.866-.66 2.571-.44.701-1.066 1.236-1.875 1.605-.81.365-1.769.547-2.877.547h-3.8v-2.77h3.147c.53 0 .973-.068 1.328-.205.36-.143.632-.356.817-.64.184-.289.277-.658.277-1.108 0-.45-.093-.821-.277-1.115a1.667 1.667 0 0 0-.817-.667c-.36-.152-.803-.228-1.328-.228h-1.733V19h-3.516Zm8.19-6.648L60.352 19h-3.835l-3.551-6.648h3.764Zm18.781-.625c0 1.6-.308 2.957-.923 4.07-.616 1.113-1.449 1.958-2.5 2.535-1.047.578-2.22.867-3.523.867-1.307 0-2.483-.291-3.53-.874-1.046-.582-1.877-1.427-2.493-2.535-.61-1.113-.916-2.467-.916-4.063 0-1.6.306-2.957.916-4.07.616-1.112 1.447-1.957 2.493-2.535 1.047-.577 2.223-.866 3.53-.866 1.302 0 2.476.289 3.523.866 1.051.578 1.884 1.423 2.5 2.536.615 1.112.923 2.469.923 4.07Zm-3.594 0c0-.947-.135-1.747-.404-2.4-.266-.654-.65-1.149-1.151-1.485-.497-.336-1.096-.504-1.797-.504-.696 0-1.295.168-1.797.504-.502.337-.888.831-1.157 1.485-.266.653-.398 1.453-.398 2.4 0 .947.132 1.747.398 2.4.27.654.655 1.149 1.157 1.485.502.336 1.101.504 1.797.504.7 0 1.3-.168 1.797-.504.502-.336.885-.83 1.15-1.484.27-.654.405-1.454.405-2.4Zm5.647-7.272h4.353l3.694 9.005h.17l3.693-9.005h4.354V19h-3.423v-8.935h-.121l-3.495 8.843h-2.187l-3.494-8.892h-.121V19h-3.423V4.455Z" fill="#0D0D0F"/></mask><g mask="url(#la)"><circle cx="-1" cy="20" r="100" fill="#0D0D0F"/></g></svg><svg fill="none" viewBox="0 0 24 24" id="menu_icon" xmlns="http://www.w3.org/2000/svg"><path d="M11 11h2v2h-2v-2ZM11 5h2v2h-2V5ZM11 17h2v2h-2v-2ZM17 11h2v2h-2v-2ZM17 5h2v2h-2V5ZM17 17h2v2h-2v-2ZM5 11h2v2H5v-2ZM5 5h2v2H5V5ZM5 17h2v2H5v-2Z" fill="#2D2DD2"/></svg><svg fill="none" viewBox="0 0 41 40" id="option" xmlns="http://www.w3.org/2000/svg"><path d="m12.854 17.979-.978-.21.978.21Zm5.959-5.959-.21-.977.21.977Zm10.06 8.57-1 .002 1-.001Zm1.336 3.835-.707.707.707-.707Zm4.414 5.828a1 1 0 0 0 1.414-1.414l-1.414 1.414Zm-4.95 4.95a1 1 0 1 0 1.414-1.415l-1.414 1.415Zm-4.414-5.828-.707.707.707-.707Zm-3.834-1.336-.002 1 .002-1ZM18.47 12.31l.922.386-.922-.386Zm-.112.266-.922-.386a1 1 0 0 0 .215 1.093l.707-.707Zm-4.95 4.95.707-.707a1 1 0 0 0-1.093-.215l.386.922Zm-.266.112.386.922-.386-.922ZM7.88 11.505l.765-.644-.001-.002-.764.646Zm4.46-4.459-.647.764.002.001.644-.765Zm1.464 1.235.645-.764-.645.764Zm-4.689 4.69.765-.645-.765.644Zm-3.447 3.876.083.997h.002l-.085-.997Zm1.91-.163.085.997-.085-.997ZM3.834 21.16h1-1Zm1.834 1.993-.083.996.083-.996Zm1.907.159.083-.997-.083.997Zm.305 5.183.764.645-.764-.645Zm1.236-1.46-.763-.647.763.646ZM7.993 31.2l.707-.707-.707.707Zm1.64 1.64-.707.707.707-.707Zm2.706.112-.644-.764-.002.001.646.763Zm1.465-1.235.645.765-.645-.765Zm3.877 3.448-.996.083.996-.083Zm-.159-1.907-.996.083.996-.083Zm2.152 3.74v-1 1Zm2.32 0v1-1Zm2.99-1.75a1 1 0 1 0-1.994-.166l1.993.166Zm10.933-13.093a1 1 0 0 0 .166 1.993l-.166-1.993ZM36 16.847l-.083.997.083-.997Zm-1.907-.159.083-.996-.083.996Zm-.306-5.183.764.646-.764-.646Zm-1.235 1.46-.764-.645.764.646ZM33.675 8.8l.707-.707-.707.707Zm-1.64-1.64-.707.707.707-.707Zm-2.706-.113.644.765.002-.001-.646-.764Zm-1.466 1.236.645.764-.645-.764Zm-3.876-3.448-.997.083.997-.083Zm.159 1.907.996-.083-.996.083ZM21.994 3V2v1Zm-2.32 0v1-1Zm-1.993 1.834-.997-.083.997.083Zm-.159 1.907-.996-.083.996.083Zm-9.045 9.211.95.31-.95-.31Zm.757-1.828.892.452-.892-.452ZM14.958 8.4l.452.892-.452-.892Zm1.832-.758-.311-.95.31.95Zm8.088 0-.31.95.31-.95Zm1.832.758-.452.892.452-.892Zm5.722 5.72-.892.453.892-.452Zm.76 1.836.95-.311-.95.31ZM16.79 32.358l-.311.95.31-.95Zm-1.832-.758.452-.892-.452.892Zm-5.722-5.721-.892.452.892-.452Zm-.76-1.835-.95.311.95-.31Zm3.4-6.275c-.637 2.978.25 6.251 2.61 8.61l1.414-1.414c-1.877-1.877-2.564-4.46-2.068-6.777l-1.956-.419Zm9.665.817-2.121 2.121 1.414 1.414L22.955 20l-1.414-1.414Zm5.673-4.934c-2.36-2.36-5.633-3.247-8.61-2.61l.418 1.956c2.318-.496 4.9.19 6.777 2.068l1.415-1.414Zm2.66 6.937c-.004-2.422-.81-5.086-2.66-6.937l-1.415 1.414c1.387 1.387 2.071 3.49 2.074 5.526l2-.003Zm-.372 4.543 5.12 5.121 1.415-1.414-5.12-5.12-1.415 1.413Zm1.585 8.656-5.12-5.12-1.415 1.414 5.12 5.12 1.415-1.413ZM14.486 26.38c1.851 1.85 4.515 2.656 6.937 2.66l.003-2c-2.036-.004-4.14-.688-5.526-2.075l-1.414 1.415Zm3.062-14.457-.111.266 1.844.772.112-.266-1.845-.772Zm.104 1.36 3.889 3.889 1.414-1.415-3.889-3.889-1.414 1.414Zm.353 7.424-3.889-3.89-1.414 1.415 3.89 3.89 1.413-1.415Zm-4.982-4.104-.266.111.772 1.845.266-.112-.772-1.844Zm12.943 12.065c-1.256-1.256-3.01-1.626-4.54-1.629l-.003 2c1.273.002 2.403.317 3.13 1.043l1.413-1.414Zm1.907-8.076c.003 1.53.372 3.284 1.629 4.54l1.414-1.414c-.726-.726-1.04-1.856-1.043-3.129l-2 .003Zm-9.27-9.55a1.483 1.483 0 0 0-1.055.88l1.845.773a.517.517 0 0 1-.371.303l-.419-1.955ZM22.955 20a3 3 0 0 0 0-4.243l-1.414 1.415a1 1 0 0 1 0 1.414L22.955 20Zm-3.535.707a1 1 0 0 1-1.415 0l-1.414 1.414a3 3 0 0 0 4.243 0l-1.414-1.414Zm-5.588-2.519a.517.517 0 0 1-.303.371l-.772-1.845c-.432.18-.775.564-.88 1.055l1.955.419ZM7.286 8.092a3 3 0 0 0-.169 4.06l1.527-1.293A1 1 0 0 1 8.7 9.506L7.286 8.092Zm1.64-1.64-1.64 1.64L8.7 9.506l1.64-1.64-1.414-1.414Zm4.06-.169a3 3 0 0 0-4.06.169l1.414 1.414a1 1 0 0 1 1.353-.056l1.292-1.527Zm1.463 1.234-1.465-1.235-1.29 1.529 1.466 1.235 1.289-1.53ZM7.116 12.15l1.235 1.465 1.529-1.29-1.235-1.464-1.53 1.289Zm-1.363 5.693 1.91-.162-.17-1.993-1.91.163.17 1.992Zm-.919.997a1 1 0 0 1 .917-.996l-.166-1.994a3 3 0 0 0-2.751 2.99h2Zm0 2.32v-2.32h-2v2.32h2Zm.917.996a1 1 0 0 1-.917-.996h-2a3 3 0 0 0 2.75 2.99l.167-1.994Zm1.907.16-1.907-.16-.166 1.993 1.907.16.166-1.994Zm.986 6.825 1.236-1.46-1.527-1.293-1.236 1.46 1.527 1.293Zm.056 1.353a1 1 0 0 1-.056-1.354L7.117 27.85a3 3 0 0 0 .169 4.059L8.7 30.494Zm1.64 1.64-1.64-1.64-1.414 1.414 1.64 1.64 1.414-1.414Zm1.353.056a1 1 0 0 1-1.353-.056l-1.414 1.414a3 3 0 0 0 4.06.169l-1.293-1.527Zm1.467-1.236-1.465 1.235 1.289 1.529 1.465-1.235-1.29-1.53Zm5.518 4.129-.16-1.907-1.992.166.159 1.907 1.993-.166Zm.996.917a1 1 0 0 1-.996-.917l-1.993.166a3 3 0 0 0 2.99 2.75v-2Zm2.32 0h-2.32v2h2.32v-2Zm.996-.917a1 1 0 0 1-.996.917v2a3 3 0 0 0 2.99-2.751l-1.994-.166ZM36.834 21.16a1 1 0 0 1-.917.996l.166 1.993a3 3 0 0 0 2.75-2.99h-2Zm0-2.32v2.32h2v-2.32h-2Zm-.917-.996a1 1 0 0 1 .917.996h2a3 3 0 0 0-2.751-2.99l-.166 1.994Zm-1.907-.16 1.907.16.166-1.993-1.907-.16-.166 1.994Zm-.986-6.825-1.236 1.46 1.527 1.293 1.236-1.46-1.527-1.293Zm-.056-1.353a1 1 0 0 1 .056 1.353l1.527 1.292a3 3 0 0 0-.17-4.059l-1.413 1.414Zm-1.64-1.64 1.64 1.64 1.414-1.414-1.64-1.64-1.414 1.414Zm-1.354-.056a1 1 0 0 1 1.354.056l1.414-1.414a3 3 0 0 0-4.06-.169l1.293 1.527Zm-1.466 1.236 1.465-1.235-1.289-1.53-1.465 1.236 1.29 1.53ZM22.99 4.917l.16 1.907 1.992-.166-.159-1.907-1.993.166ZM21.994 4a1 1 0 0 1 .996.917l1.993-.166A3 3 0 0 0 21.993 2v2Zm-2.32 0h2.32V2h-2.32v2Zm-.996.917A1 1 0 0 1 19.674 4V2a3 3 0 0 0-2.99 2.75l1.994.167Zm-.16 1.907.16-1.907-1.994-.166-.158 1.907 1.993.166Zm-9.09 9.438c.188-.575.42-1.139.698-1.686l-1.784-.904c-.324.639-.596 1.298-.815 1.97l1.9.62Zm5.982-6.97c.548-.278 1.113-.51 1.69-.7l-.621-1.9c-.672.22-1.333.492-1.973.816l.904 1.784Zm9.158-.7c.576.19 1.142.422 1.69.7l.904-1.784c-.64-.324-1.3-.597-1.973-.816l-.621 1.9Zm6.972 5.98c.278.55.512 1.117.7 1.694l1.902-.621a14.013 14.013 0 0 0-.818-1.976l-1.784.904ZM17.1 31.408a11.965 11.965 0 0 1-1.69-.7l-.904 1.785c.64.324 1.3.596 1.973.816l.621-1.901Zm-6.972-5.98a12.016 12.016 0 0 1-.701-1.694l-1.901.622c.22.673.493 1.335.818 1.976l1.784-.904Zm6.398-18.769-.005.007a.09.09 0 0 1-.042.027l.621 1.9a2.05 2.05 0 0 0 1.419-1.768l-1.993-.166Zm1.993 26.518a2.05 2.05 0 0 0-1.419-1.77l-.621 1.902c.02.007.035.018.042.027l.005.007 1.993-.166Zm-4.07-.693.008-.002c.011 0 .03.001.05.011l.903-1.784a2.051 2.051 0 0 0-2.25.246l1.289 1.529Zm8.7-25.659a2.05 2.05 0 0 0 1.419 1.769l.62-1.901a.091.091 0 0 1-.041-.027l-.005-.007-1.993.166ZM9.88 27.68a2.051 2.051 0 0 0 .249-2.253l-1.784.904c.01.02.011.038.01.049a.032.032 0 0 1-.001.009L9.88 27.68ZM27.22 7.517l-.008.001a.093.093 0 0 1-.05-.01l-.903 1.784a2.052 2.052 0 0 0 2.25-.246l-1.289-1.53ZM7.492 24.308l.007.005c.009.007.02.021.027.042l1.9-.622a2.051 2.051 0 0 0-1.768-1.418l-.166 1.993ZM31.788 12.32a2.051 2.051 0 0 0-.248 2.253l1.784-.904a.092.092 0 0 1-.01-.05.03.03 0 0 1 .001-.008l-1.527-1.291ZM7.663 17.68a2.05 2.05 0 0 0 1.765-1.418l-1.901-.62a.09.09 0 0 1-.027.041.028.028 0 0 1-.007.005l.17 1.993Zm5.497-8.634c.652.55 1.544.603 2.25.246l-.904-1.784a.092.092 0 0 1-.049.01.032.032 0 0 1-.009-.001l-1.288 1.53Zm21.016 6.646-.007-.005a.092.092 0 0 1-.027-.042l-1.901.621a2.05 2.05 0 0 0 1.769 1.419l.166-1.993ZM8.35 13.615l.001.008c.002.011 0 .03-.01.049l1.784.904a2.051 2.051 0 0 0-.246-2.25l-1.53 1.289Z" fill="#0D0D0F"/></svg><svg fill="none" viewBox="0 0 24 24" id="search-ico" xmlns="http://www.w3.org/2000/svg"><circle cx="12" cy="12" r="8" stroke="#0D0D0F" stroke-width="2" stroke-linecap="round" stroke-linejoin="round"/><path d="m18 18 3 3" stroke="#0D0D0F" stroke-width="2" stroke-linecap="round" stroke-linejoin="round"/></svg></svg>